<?xml version="1.0" encoding="iso-8859-1"?>
<!-- Generator: Adobe Illustrator 19.0.0, SVG Export Plug-In . SVG Version: 6.00 Build 0)  -->
<svg version="1.1" id="Layer_1" xmlns="http://www.w3.org/2000/svg" xmlns:xlink="http://www.w3.org/1999/xlink" x="0px" y="0px"
	 viewBox="0 0 512 512" style="enable-background:new 0 0 512 512;" xml:space="preserve">
<circle style="fill:#FFAD9E;" cx="256" cy="256" r="256"/>
<path style="fill:#FF6262;" d="M511.976,257.867l-148.69-148.69l-65.277,133.43L165.922,110.521l-2.51,42.546l-8.514,38.116
	l-26.427,54.02l-4.349,42.689l-6.311,105.513l116.902,117.707c7.021,0.577,14.117,0.888,21.287,0.888
	C396.76,512,510.971,398.391,511.976,257.867z"/>
<g>
	<path style="fill:#D35933;" d="M383.138,398.222H128.862c-8.33,0-15.084-6.753-15.084-15.084V157.306
		c0-8.33,6.753-15.084,15.084-15.084h254.276c8.33,0,15.084,6.753,15.084,15.084v225.832
		C398.222,391.47,391.47,398.222,383.138,398.222z"/>
	<path style="fill:#D35933;" d="M128.862,142.222c-8.33,0-15.084,6.753-15.084,15.084v225.832c0,8.33,6.753,15.084,15.084,15.084
		h125.702v-256H128.862z"/>
</g>
<path style="fill:#B54324;" d="M383.138,142.222H254.564v256h128.574c8.33,0,15.084-6.753,15.084-15.084V157.306
	C398.222,148.975,391.47,142.222,383.138,142.222z"/>
<g>
	<rect x="142.222" y="170.667" style="fill:#EAA22F;" width="227.556" height="199.111"/>
	<rect x="142.222" y="170.667" style="fill:#EAA22F;" width="112.347" height="199.111"/>
</g>
<rect x="254.569" y="170.667" style="fill:#E09112;" width="115.214" height="199.111"/>
<g>
	<path style="fill:#930000;" d="M156.444,163.771L156.444,163.771c-7.854,0-14.222-6.368-14.222-14.222v-28.444
		c0-7.854,6.368-14.222,14.222-14.222l0,0c7.854,0,14.222,6.368,14.222,14.222v28.444
		C170.667,157.403,164.299,163.771,156.444,163.771z"/>
	<path style="fill:#930000;" d="M355.556,163.771L355.556,163.771c-7.854,0-14.222-6.368-14.222-14.222v-28.444
		c0-7.854,6.368-14.222,14.222-14.222l0,0c7.854,0,14.222,6.368,14.222,14.222v28.444
		C369.778,157.403,363.41,163.771,355.556,163.771z"/>
</g>
<g>
	<rect x="156.444" y="186.613" style="fill:#FFFFFF;" width="28.444" height="28.444"/>
	<rect x="213.333" y="186.613" style="fill:#FFFFFF;" width="28.444" height="28.444"/>
</g>
<g>
	<rect x="270.222" y="186.613" style="fill:#D0D1D3;" width="28.444" height="28.444"/>
	<rect x="327.111" y="186.613" style="fill:#D0D1D3;" width="28.444" height="28.444"/>
</g>
<g>
	<rect x="156.444" y="232.589" style="fill:#FFFFFF;" width="28.444" height="28.444"/>
	<rect x="213.333" y="232.589" style="fill:#FFFFFF;" width="28.444" height="28.444"/>
</g>
<g>
	<rect x="270.222" y="232.589" style="fill:#D0D1D3;" width="28.444" height="28.444"/>
	<rect x="327.111" y="232.589" style="fill:#D0D1D3;" width="28.444" height="28.444"/>
</g>
<g>
	<rect x="156.444" y="278.549" style="fill:#FFFFFF;" width="28.444" height="28.444"/>
	<rect x="213.333" y="278.549" style="fill:#FFFFFF;" width="28.444" height="28.444"/>
</g>
<g>
	<rect x="270.222" y="278.549" style="fill:#D0D1D3;" width="28.444" height="28.444"/>
	<rect x="327.111" y="278.549" style="fill:#D0D1D3;" width="28.444" height="28.444"/>
</g>
<g>
	<rect x="156.444" y="324.525" style="fill:#FFFFFF;" width="28.444" height="28.444"/>
	<rect x="213.333" y="324.525" style="fill:#FFFFFF;" width="28.444" height="28.444"/>
</g>
<g>
	<rect x="270.222" y="324.525" style="fill:#D0D1D3;" width="28.444" height="28.444"/>
	<rect x="327.111" y="324.525" style="fill:#D0D1D3;" width="28.444" height="28.444"/>
</g>
<g>
</g>
<g>
</g>
<g>
</g>
<g>
</g>
<g>
</g>
<g>
</g>
<g>
</g>
<g>
</g>
<g>
</g>
<g>
</g>
<g>
</g>
<g>
</g>
<g>
</g>
<g>
</g>
<g>
</g>
</svg>
